<svg width="73" height="16" viewBox="0 0 73 16" fill="none" xmlns="http://www.w3.org/2000/svg">
<path d="M3.6 12.12C2.712 12.12 1.98 11.86 1.404 11.34C0.836 10.82 0.552 10.068 0.552 9.084C0.552 8.54 0.66 8.056 0.876 7.632C1.092 7.2 1.376 6.86 1.728 6.612C2.456 6.108 3.252 5.856 4.116 5.856C4.38 5.856 4.64 5.888 4.896 5.952C5.152 6.016 5.344 6.08 5.472 6.144L5.664 6.252V7.668H4.932L4.764 6.936C4.652 6.848 4.436 6.804 4.116 6.804C3.428 6.804 2.856 7.012 2.4 7.428C1.944 7.844 1.716 8.368 1.716 9C1.716 9.632 1.912 10.156 2.304 10.572C2.704 10.98 3.232 11.184 3.888 11.184C4.208 11.184 4.504 11.152 4.776 11.088C5.056 11.016 5.252 10.944 5.364 10.872L5.532 10.776L5.88 11.4C5.856 11.416 5.82 11.444 5.772 11.484C5.732 11.516 5.64 11.572 5.496 11.652C5.352 11.732 5.2 11.804 5.04 11.868C4.608 12.036 4.128 12.12 3.6 12.12ZM12.1253 11.268C11.5413 11.844 10.8053 12.132 9.91725 12.132C9.02925 12.132 8.29325 11.844 7.70925 11.268C7.12525 10.684 6.83325 9.928 6.83325 9C6.83325 8.072 7.12525 7.316 7.70925 6.732C8.29325 6.148 9.02925 5.856 9.91725 5.856C10.8053 5.856 11.5413 6.148 12.1253 6.732C12.7093 7.316 13.0013 8.072 13.0013 9C13.0013 9.928 12.7093 10.684 12.1253 11.268ZM8.53725 10.608C8.89725 10.992 9.35725 11.184 9.91725 11.184C10.4773 11.184 10.9373 10.992 11.2973 10.608C11.6573 10.216 11.8373 9.692 11.8373 9.036C11.8373 8.38 11.6533 7.844 11.2853 7.428C10.9253 7.012 10.4693 6.804 9.91725 6.804C9.36525 6.804 8.90525 7.012 8.53725 7.428C8.17725 7.844 7.99725 8.38 7.99725 9.036C7.99725 9.692 8.17725 10.216 8.53725 10.608ZM21.2266 12H18.0706V11.484L19.0306 11.088V8.22C19.0306 7.748 18.9506 7.396 18.7906 7.164C18.6386 6.932 18.3586 6.816 17.9506 6.816C17.2946 6.816 16.7066 7.076 16.1866 7.596V11.088L17.2066 11.484V12H14.0506V11.484L15.0586 11.088V6.804H14.0506V6.084C14.3626 5.932 14.7186 5.856 15.1186 5.856C15.5186 5.856 15.7906 5.944 15.9346 6.12C16.0866 6.296 16.1706 6.56 16.1866 6.912C16.2986 6.768 16.4666 6.604 16.6906 6.42C17.1626 6.044 17.7026 5.856 18.3106 5.856C18.9186 5.856 19.3786 6.032 19.6906 6.384C20.0026 6.728 20.1586 7.2 20.1586 7.8V11.088L21.2266 11.484V12ZM22.7779 12.504V6.804H21.7699V6.084C22.0819 5.932 22.4419 5.856 22.8499 5.856C23.2659 5.856 23.5459 5.956 23.6899 6.156C23.8339 6.348 23.9059 6.644 23.9059 7.044V12.84C23.9059 13.632 23.7059 14.232 23.3059 14.64C22.9059 15.056 22.3419 15.264 21.6139 15.264C21.3259 15.264 21.0619 15.22 20.8219 15.132C20.5739 15.044 20.3979 14.96 20.2939 14.88L20.1499 14.748L20.4739 14.088C20.6979 14.216 21.0339 14.28 21.4819 14.28C21.9299 14.28 22.2579 14.156 22.4659 13.908C22.6739 13.66 22.7779 13.192 22.7779 12.504ZM23.9539 4.476C23.7699 4.66 23.5459 4.752 23.2819 4.752C23.0179 4.752 22.7939 4.66 22.6099 4.476C22.4259 4.292 22.3339 4.068 22.3339 3.804C22.3339 3.54 22.4259 3.316 22.6099 3.132C22.7939 2.948 23.0179 2.856 23.2819 2.856C23.5459 2.856 23.7699 2.948 23.9539 3.132C24.1379 3.316 24.2299 3.54 24.2299 3.804C24.2299 4.068 24.1379 4.292 23.9539 4.476ZM32.2101 11.184V11.904C31.8981 12.056 31.5461 12.132 31.1541 12.132C30.7621 12.132 30.4901 12.052 30.3381 11.892C30.1861 11.724 30.0981 11.48 30.0741 11.16C29.9701 11.28 29.8501 11.4 29.7141 11.52C29.5781 11.64 29.3501 11.772 29.0301 11.916C28.7181 12.06 28.3901 12.132 28.0461 12.132C27.4221 12.132 26.9541 11.96 26.6421 11.616C26.3301 11.264 26.1741 10.788 26.1741 10.188V6.804H25.1661V6.084C25.4781 5.932 25.8381 5.856 26.2461 5.856C26.6621 5.856 26.9421 5.956 27.0861 6.156C27.2301 6.348 27.3021 6.644 27.3021 7.044V9.768C27.3021 10.24 27.3781 10.592 27.5301 10.824C27.6901 11.056 27.9741 11.172 28.3821 11.172C28.7901 11.172 29.1381 11.096 29.4261 10.944C29.7141 10.784 29.9301 10.62 30.0741 10.452V6.804H29.0661V6.084C29.3781 5.932 29.7381 5.856 30.1461 5.856C30.5621 5.856 30.8421 5.956 30.9861 6.156C31.1301 6.348 31.2021 6.644 31.2021 7.044V11.184H32.2101ZM36.191 12H33.035V11.484L34.043 11.088V6.804H33.035V6.084C33.347 5.932 33.699 5.856 34.091 5.856C34.483 5.856 34.755 5.94 34.907 6.108C35.059 6.276 35.143 6.524 35.159 6.852C35.239 6.612 35.403 6.396 35.651 6.204C35.947 5.972 36.339 5.856 36.827 5.856C37.043 5.856 37.247 5.884 37.439 5.94C37.639 5.996 37.783 6.052 37.871 6.108L38.015 6.192V7.608H37.295L37.139 6.888C37.091 6.84 36.959 6.816 36.743 6.816C36.527 6.816 36.319 6.848 36.119 6.912C35.919 6.968 35.763 7.04 35.651 7.128C35.427 7.32 35.267 7.516 35.171 7.716V11.088L36.191 11.484V12ZM38.2497 6.012H41.3697V6.54L40.5537 6.828L42.1137 10.776L43.5537 6.828L42.7377 6.54V6.012H45.7377V6.54L44.7777 6.852L42.0897 13.272C41.8337 13.88 41.5137 14.364 41.1297 14.724C40.7537 15.084 40.2497 15.264 39.6177 15.264C39.3297 15.264 39.0737 15.22 38.8497 15.132C38.6337 15.044 38.4897 14.96 38.4177 14.88L38.3097 14.748L38.6337 14.088C38.8737 14.216 39.2017 14.28 39.6177 14.28C40.3377 14.28 40.8897 13.768 41.2737 12.744L41.5497 12.012L39.2097 6.852L38.2497 6.54V6.012ZM47.3218 11.928C47.1858 12.064 47.0178 12.132 46.8178 12.132C46.6178 12.132 46.4498 12.064 46.3138 11.928C46.1778 11.792 46.1098 11.624 46.1098 11.424C46.1098 11.224 46.1778 11.056 46.3138 10.92C46.4498 10.784 46.6178 10.716 46.8178 10.716C47.0178 10.716 47.1858 10.784 47.3218 10.92C47.4578 11.056 47.5258 11.224 47.5258 11.424C47.5258 11.624 47.4578 11.792 47.3218 11.928ZM55.443 11.184V11.904C55.131 12.056 54.787 12.132 54.411 12.132C54.043 12.132 53.775 12.064 53.607 11.928C53.447 11.792 53.351 11.592 53.319 11.328C52.951 11.856 52.375 12.12 51.591 12.12C50.959 12.12 50.375 11.904 49.839 11.472C49.567 11.248 49.347 10.932 49.179 10.524C49.019 10.108 48.939 9.628 48.939 9.084C48.939 8.54 49.047 8.056 49.263 7.632C49.479 7.2 49.763 6.86 50.115 6.612C50.827 6.108 51.615 5.856 52.479 5.856C52.735 5.856 53.011 5.912 53.307 6.024V3.684H52.299V2.964C52.611 2.812 52.971 2.736 53.379 2.736C53.795 2.736 54.075 2.836 54.219 3.036C54.363 3.228 54.435 3.524 54.435 3.924V11.184H55.443ZM52.479 6.804C51.767 6.804 51.191 7 50.751 7.392C50.319 7.776 50.103 8.32 50.103 9.024C50.103 9.728 50.275 10.276 50.619 10.668C50.971 11.052 51.351 11.244 51.759 11.244C52.447 11.244 52.963 10.992 53.307 10.488V6.984C52.947 6.864 52.671 6.804 52.479 6.804ZM59.405 12.12C58.501 12.12 57.765 11.864 57.197 11.352C56.637 10.832 56.357 10.076 56.357 9.084C56.357 8.092 56.645 7.308 57.221 6.732C57.797 6.148 58.469 5.856 59.237 5.856C61.061 5.856 61.973 6.936 61.973 9.096H57.521V9.156C57.521 9.724 57.721 10.204 58.121 10.596C58.521 10.988 59.065 11.184 59.753 11.184C60.049 11.184 60.329 11.152 60.593 11.088C60.857 11.016 61.049 10.944 61.169 10.872L61.337 10.776L61.685 11.4C61.661 11.416 61.625 11.444 61.577 11.484C61.537 11.516 61.445 11.572 61.301 11.652C61.157 11.732 61.001 11.804 60.833 11.868C60.409 12.036 59.933 12.12 59.405 12.12ZM60.857 8.328C60.817 7.832 60.653 7.456 60.365 7.2C60.085 6.936 59.717 6.804 59.261 6.804C58.813 6.804 58.441 6.932 58.145 7.188C57.849 7.436 57.657 7.816 57.569 8.328H60.857ZM62.5866 6.012H65.6466V6.54L64.8306 6.828L66.3906 10.812L67.8906 6.828L67.0746 6.54V6.012H70.0746V6.54L69.1146 6.852L66.9306 12H65.7306L63.5466 6.852L62.5866 6.54V6.012Z" fill="black"/>
<path d="M5.6 12.12C4.712 12.12 3.98 11.86 3.404 11.34C2.836 10.82 2.552 10.068 2.552 9.084C2.552 8.54 2.66 8.056 2.876 7.632C3.092 7.2 3.376 6.86 3.728 6.612C4.456 6.108 5.252 5.856 6.116 5.856C6.38 5.856 6.64 5.888 6.896 5.952C7.152 6.016 7.344 6.08 7.472 6.144L7.664 6.252V7.668H6.932L6.764 6.936C6.652 6.848 6.436 6.804 6.116 6.804C5.428 6.804 4.856 7.012 4.4 7.428C3.944 7.844 3.716 8.368 3.716 9C3.716 9.632 3.912 10.156 4.304 10.572C4.704 10.98 5.232 11.184 5.888 11.184C6.208 11.184 6.504 11.152 6.776 11.088C7.056 11.016 7.252 10.944 7.364 10.872L7.532 10.776L7.88 11.4C7.856 11.416 7.82 11.444 7.772 11.484C7.732 11.516 7.64 11.572 7.496 11.652C7.352 11.732 7.2 11.804 7.04 11.868C6.608 12.036 6.128 12.12 5.6 12.12ZM14.1253 11.268C13.5413 11.844 12.8053 12.132 11.9173 12.132C11.0293 12.132 10.2933 11.844 9.70925 11.268C9.12525 10.684 8.83325 9.928 8.83325 9C8.83325 8.072 9.12525 7.316 9.70925 6.732C10.2933 6.148 11.0293 5.856 11.9173 5.856C12.8053 5.856 13.5413 6.148 14.1253 6.732C14.7093 7.316 15.0013 8.072 15.0013 9C15.0013 9.928 14.7093 10.684 14.1253 11.268ZM10.5373 10.608C10.8973 10.992 11.3573 11.184 11.9173 11.184C12.4773 11.184 12.9373 10.992 13.2973 10.608C13.6573 10.216 13.8373 9.692 13.8373 9.036C13.8373 8.38 13.6533 7.844 13.2853 7.428C12.9253 7.012 12.4693 6.804 11.9173 6.804C11.3653 6.804 10.9053 7.012 10.5373 7.428C10.1773 7.844 9.99725 8.38 9.99725 9.036C9.99725 9.692 10.1773 10.216 10.5373 10.608ZM23.2266 12H20.0706V11.484L21.0306 11.088V8.22C21.0306 7.748 20.9506 7.396 20.7906 7.164C20.6386 6.932 20.3586 6.816 19.9506 6.816C19.2946 6.816 18.7066 7.076 18.1866 7.596V11.088L19.2066 11.484V12H16.0506V11.484L17.0586 11.088V6.804H16.0506V6.084C16.3626 5.932 16.7186 5.856 17.1186 5.856C17.5186 5.856 17.7906 5.944 17.9346 6.12C18.0866 6.296 18.1706 6.56 18.1866 6.912C18.2986 6.768 18.4666 6.604 18.6906 6.42C19.1626 6.044 19.7026 5.856 20.3106 5.856C20.9186 5.856 21.3786 6.032 21.6906 6.384C22.0026 6.728 22.1586 7.2 22.1586 7.8V11.088L23.2266 11.484V12ZM24.7779 12.504V6.804H23.7699V6.084C24.0819 5.932 24.4419 5.856 24.8499 5.856C25.2659 5.856 25.5459 5.956 25.6899 6.156C25.8339 6.348 25.9059 6.644 25.9059 7.044V12.84C25.9059 13.632 25.7059 14.232 25.3059 14.64C24.9059 15.056 24.3419 15.264 23.6139 15.264C23.3259 15.264 23.0619 15.22 22.8219 15.132C22.5739 15.044 22.3979 14.96 22.2939 14.88L22.1499 14.748L22.4739 14.088C22.6979 14.216 23.0339 14.28 23.4819 14.28C23.9299 14.28 24.2579 14.156 24.4659 13.908C24.6739 13.66 24.7779 13.192 24.7779 12.504ZM25.9539 4.476C25.7699 4.66 25.5459 4.752 25.2819 4.752C25.0179 4.752 24.7939 4.66 24.6099 4.476C24.4259 4.292 24.3339 4.068 24.3339 3.804C24.3339 3.54 24.4259 3.316 24.6099 3.132C24.7939 2.948 25.0179 2.856 25.2819 2.856C25.5459 2.856 25.7699 2.948 25.9539 3.132C26.1379 3.316 26.2299 3.54 26.2299 3.804C26.2299 4.068 26.1379 4.292 25.9539 4.476ZM34.2101 11.184V11.904C33.8981 12.056 33.5461 12.132 33.1541 12.132C32.7621 12.132 32.4901 12.052 32.3381 11.892C32.1861 11.724 32.0981 11.48 32.0741 11.16C31.9701 11.28 31.8501 11.4 31.7141 11.52C31.5781 11.64 31.3501 11.772 31.0301 11.916C30.7181 12.06 30.3901 12.132 30.0461 12.132C29.4221 12.132 28.9541 11.96 28.6421 11.616C28.3301 11.264 28.1741 10.788 28.1741 10.188V6.804H27.1661V6.084C27.4781 5.932 27.8381 5.856 28.2461 5.856C28.6621 5.856 28.9421 5.956 29.0861 6.156C29.2301 6.348 29.3021 6.644 29.3021 7.044V9.768C29.3021 10.24 29.3781 10.592 29.5301 10.824C29.6901 11.056 29.9741 11.172 30.3821 11.172C30.7901 11.172 31.1381 11.096 31.4261 10.944C31.7141 10.784 31.9301 10.62 32.0741 10.452V6.804H31.0661V6.084C31.3781 5.932 31.7381 5.856 32.1461 5.856C32.5621 5.856 32.8421 5.956 32.9861 6.156C33.1301 6.348 33.2021 6.644 33.2021 7.044V11.184H34.2101ZM38.191 12H35.035V11.484L36.043 11.088V6.804H35.035V6.084C35.347 5.932 35.699 5.856 36.091 5.856C36.483 5.856 36.755 5.94 36.907 6.108C37.059 6.276 37.143 6.524 37.159 6.852C37.239 6.612 37.403 6.396 37.651 6.204C37.947 5.972 38.339 5.856 38.827 5.856C39.043 5.856 39.247 5.884 39.439 5.94C39.639 5.996 39.783 6.052 39.871 6.108L40.015 6.192V7.608H39.295L39.139 6.888C39.091 6.84 38.959 6.816 38.743 6.816C38.527 6.816 38.319 6.848 38.119 6.912C37.919 6.968 37.763 7.04 37.651 7.128C37.427 7.32 37.267 7.516 37.171 7.716V11.088L38.191 11.484V12ZM40.2497 6.012H43.3697V6.54L42.5537 6.828L44.1137 10.776L45.5537 6.828L44.7377 6.54V6.012H47.7377V6.54L46.7777 6.852L44.0897 13.272C43.8337 13.88 43.5137 14.364 43.1297 14.724C42.7537 15.084 42.2497 15.264 41.6177 15.264C41.3297 15.264 41.0737 15.22 40.8497 15.132C40.6337 15.044 40.4897 14.96 40.4177 14.88L40.3097 14.748L40.6337 14.088C40.8737 14.216 41.2017 14.28 41.6177 14.28C42.3377 14.28 42.8897 13.768 43.2737 12.744L43.5497 12.012L41.2097 6.852L40.2497 6.54V6.012ZM49.3218 11.928C49.1858 12.064 49.0178 12.132 48.8178 12.132C48.6178 12.132 48.4498 12.064 48.3138 11.928C48.1778 11.792 48.1098 11.624 48.1098 11.424C48.1098 11.224 48.1778 11.056 48.3138 10.92C48.4498 10.784 48.6178 10.716 48.8178 10.716C49.0178 10.716 49.1858 10.784 49.3218 10.92C49.4578 11.056 49.5258 11.224 49.5258 11.424C49.5258 11.624 49.4578 11.792 49.3218 11.928ZM57.443 11.184V11.904C57.131 12.056 56.787 12.132 56.411 12.132C56.043 12.132 55.775 12.064 55.607 11.928C55.447 11.792 55.351 11.592 55.319 11.328C54.951 11.856 54.375 12.12 53.591 12.12C52.959 12.12 52.375 11.904 51.839 11.472C51.567 11.248 51.347 10.932 51.179 10.524C51.019 10.108 50.939 9.628 50.939 9.084C50.939 8.54 51.047 8.056 51.263 7.632C51.479 7.2 51.763 6.86 52.115 6.612C52.827 6.108 53.615 5.856 54.479 5.856C54.735 5.856 55.011 5.912 55.307 6.024V3.684H54.299V2.964C54.611 2.812 54.971 2.736 55.379 2.736C55.795 2.736 56.075 2.836 56.219 3.036C56.363 3.228 56.435 3.524 56.435 3.924V11.184H57.443ZM54.479 6.804C53.767 6.804 53.191 7 52.751 7.392C52.319 7.776 52.103 8.32 52.103 9.024C52.103 9.728 52.275 10.276 52.619 10.668C52.971 11.052 53.351 11.244 53.759 11.244C54.447 11.244 54.963 10.992 55.307 10.488V6.984C54.947 6.864 54.671 6.804 54.479 6.804ZM61.405 12.12C60.501 12.12 59.765 11.864 59.197 11.352C58.637 10.832 58.357 10.076 58.357 9.084C58.357 8.092 58.645 7.308 59.221 6.732C59.797 6.148 60.469 5.856 61.237 5.856C63.061 5.856 63.973 6.936 63.973 9.096H59.521V9.156C59.521 9.724 59.721 10.204 60.121 10.596C60.521 10.988 61.065 11.184 61.753 11.184C62.049 11.184 62.329 11.152 62.593 11.088C62.857 11.016 63.049 10.944 63.169 10.872L63.337 10.776L63.685 11.4C63.661 11.416 63.625 11.444 63.577 11.484C63.537 11.516 63.445 11.572 63.301 11.652C63.157 11.732 63.001 11.804 62.833 11.868C62.409 12.036 61.933 12.12 61.405 12.12ZM62.857 8.328C62.817 7.832 62.653 7.456 62.365 7.2C62.085 6.936 61.717 6.804 61.261 6.804C60.813 6.804 60.441 6.932 60.145 7.188C59.849 7.436 59.657 7.816 59.569 8.328H62.857ZM64.5866 6.012H67.6466V6.54L66.8306 6.828L68.3906 10.812L69.8906 6.828L69.0746 6.54V6.012H72.0746V6.54L71.1146 6.852L68.9306 12H67.7306L65.5466 6.852L64.5866 6.54V6.012Z" fill="#27F2B7"/>
<path d="M4.6 12.12C3.712 12.12 2.98 11.86 2.404 11.34C1.836 10.82 1.552 10.068 1.552 9.084C1.552 8.54 1.66 8.056 1.876 7.632C2.092 7.2 2.376 6.86 2.728 6.612C3.456 6.108 4.252 5.856 5.116 5.856C5.38 5.856 5.64 5.888 5.896 5.952C6.152 6.016 6.344 6.08 6.472 6.144L6.664 6.252V7.668H5.932L5.764 6.936C5.652 6.848 5.436 6.804 5.116 6.804C4.428 6.804 3.856 7.012 3.4 7.428C2.944 7.844 2.716 8.368 2.716 9C2.716 9.632 2.912 10.156 3.304 10.572C3.704 10.98 4.232 11.184 4.888 11.184C5.208 11.184 5.504 11.152 5.776 11.088C6.056 11.016 6.252 10.944 6.364 10.872L6.532 10.776L6.88 11.4C6.856 11.416 6.82 11.444 6.772 11.484C6.732 11.516 6.64 11.572 6.496 11.652C6.352 11.732 6.2 11.804 6.04 11.868C5.608 12.036 5.128 12.12 4.6 12.12ZM13.1253 11.268C12.5413 11.844 11.8053 12.132 10.9173 12.132C10.0293 12.132 9.29325 11.844 8.70925 11.268C8.12525 10.684 7.83325 9.928 7.83325 9C7.83325 8.072 8.12525 7.316 8.70925 6.732C9.29325 6.148 10.0293 5.856 10.9173 5.856C11.8053 5.856 12.5413 6.148 13.1253 6.732C13.7093 7.316 14.0013 8.072 14.0013 9C14.0013 9.928 13.7093 10.684 13.1253 11.268ZM9.53725 10.608C9.89725 10.992 10.3573 11.184 10.9173 11.184C11.4773 11.184 11.9373 10.992 12.2973 10.608C12.6573 10.216 12.8373 9.692 12.8373 9.036C12.8373 8.38 12.6533 7.844 12.2853 7.428C11.9253 7.012 11.4693 6.804 10.9173 6.804C10.3653 6.804 9.90525 7.012 9.53725 7.428C9.17725 7.844 8.99725 8.38 8.99725 9.036C8.99725 9.692 9.17725 10.216 9.53725 10.608ZM22.2266 12H19.0706V11.484L20.0306 11.088V8.22C20.0306 7.748 19.9506 7.396 19.7906 7.164C19.6386 6.932 19.3586 6.816 18.9506 6.816C18.2946 6.816 17.7066 7.076 17.1866 7.596V11.088L18.2066 11.484V12H15.0506V11.484L16.0586 11.088V6.804H15.0506V6.084C15.3626 5.932 15.7186 5.856 16.1186 5.856C16.5186 5.856 16.7906 5.944 16.9346 6.12C17.0866 6.296 17.1706 6.56 17.1866 6.912C17.2986 6.768 17.4666 6.604 17.6906 6.42C18.1626 6.044 18.7026 5.856 19.3106 5.856C19.9186 5.856 20.3786 6.032 20.6906 6.384C21.0026 6.728 21.1586 7.2 21.1586 7.8V11.088L22.2266 11.484V12ZM23.7779 12.504V6.804H22.7699V6.084C23.0819 5.932 23.4419 5.856 23.8499 5.856C24.2659 5.856 24.5459 5.956 24.6899 6.156C24.8339 6.348 24.9059 6.644 24.9059 7.044V12.84C24.9059 13.632 24.7059 14.232 24.3059 14.64C23.9059 15.056 23.3419 15.264 22.6139 15.264C22.3259 15.264 22.0619 15.22 21.8219 15.132C21.5739 15.044 21.3979 14.96 21.2939 14.88L21.1499 14.748L21.4739 14.088C21.6979 14.216 22.0339 14.28 22.4819 14.28C22.9299 14.28 23.2579 14.156 23.4659 13.908C23.6739 13.66 23.7779 13.192 23.7779 12.504ZM24.9539 4.476C24.7699 4.66 24.5459 4.752 24.2819 4.752C24.0179 4.752 23.7939 4.66 23.6099 4.476C23.4259 4.292 23.3339 4.068 23.3339 3.804C23.3339 3.54 23.4259 3.316 23.6099 3.132C23.7939 2.948 24.0179 2.856 24.2819 2.856C24.5459 2.856 24.7699 2.948 24.9539 3.132C25.1379 3.316 25.2299 3.54 25.2299 3.804C25.2299 4.068 25.1379 4.292 24.9539 4.476ZM33.2101 11.184V11.904C32.8981 12.056 32.5461 12.132 32.1541 12.132C31.7621 12.132 31.4901 12.052 31.3381 11.892C31.1861 11.724 31.0981 11.48 31.0741 11.16C30.9701 11.28 30.8501 11.4 30.7141 11.52C30.5781 11.64 30.3501 11.772 30.0301 11.916C29.7181 12.06 29.3901 12.132 29.0461 12.132C28.4221 12.132 27.9541 11.96 27.6421 11.616C27.3301 11.264 27.1741 10.788 27.1741 10.188V6.804H26.1661V6.084C26.4781 5.932 26.8381 5.856 27.2461 5.856C27.6621 5.856 27.9421 5.956 28.0861 6.156C28.2301 6.348 28.3021 6.644 28.3021 7.044V9.768C28.3021 10.24 28.3781 10.592 28.5301 10.824C28.6901 11.056 28.9741 11.172 29.3821 11.172C29.7901 11.172 30.1381 11.096 30.4261 10.944C30.7141 10.784 30.9301 10.62 31.0741 10.452V6.804H30.0661V6.084C30.3781 5.932 30.7381 5.856 31.1461 5.856C31.5621 5.856 31.8421 5.956 31.9861 6.156C32.1301 6.348 32.2021 6.644 32.2021 7.044V11.184H33.2101ZM37.191 12H34.035V11.484L35.043 11.088V6.804H34.035V6.084C34.347 5.932 34.699 5.856 35.091 5.856C35.483 5.856 35.755 5.94 35.907 6.108C36.059 6.276 36.143 6.524 36.159 6.852C36.239 6.612 36.403 6.396 36.651 6.204C36.947 5.972 37.339 5.856 37.827 5.856C38.043 5.856 38.247 5.884 38.439 5.94C38.639 5.996 38.783 6.052 38.871 6.108L39.015 6.192V7.608H38.295L38.139 6.888C38.091 6.84 37.959 6.816 37.743 6.816C37.527 6.816 37.319 6.848 37.119 6.912C36.919 6.968 36.763 7.04 36.651 7.128C36.427 7.32 36.267 7.516 36.171 7.716V11.088L37.191 11.484V12ZM39.2497 6.012H42.3697V6.54L41.5537 6.828L43.1137 10.776L44.5537 6.828L43.7377 6.54V6.012H46.7377V6.54L45.7777 6.852L43.0897 13.272C42.8337 13.88 42.5137 14.364 42.1297 14.724C41.7537 15.084 41.2497 15.264 40.6177 15.264C40.3297 15.264 40.0737 15.22 39.8497 15.132C39.6337 15.044 39.4897 14.96 39.4177 14.88L39.3097 14.748L39.6337 14.088C39.8737 14.216 40.2017 14.28 40.6177 14.28C41.3377 14.28 41.8897 13.768 42.2737 12.744L42.5497 12.012L40.2097 6.852L39.2497 6.54V6.012ZM48.3218 11.928C48.1858 12.064 48.0178 12.132 47.8178 12.132C47.6178 12.132 47.4498 12.064 47.3138 11.928C47.1778 11.792 47.1098 11.624 47.1098 11.424C47.1098 11.224 47.1778 11.056 47.3138 10.92C47.4498 10.784 47.6178 10.716 47.8178 10.716C48.0178 10.716 48.1858 10.784 48.3218 10.92C48.4578 11.056 48.5258 11.224 48.5258 11.424C48.5258 11.624 48.4578 11.792 48.3218 11.928ZM56.443 11.184V11.904C56.131 12.056 55.787 12.132 55.411 12.132C55.043 12.132 54.775 12.064 54.607 11.928C54.447 11.792 54.351 11.592 54.319 11.328C53.951 11.856 53.375 12.12 52.591 12.12C51.959 12.12 51.375 11.904 50.839 11.472C50.567 11.248 50.347 10.932 50.179 10.524C50.019 10.108 49.939 9.628 49.939 9.084C49.939 8.54 50.047 8.056 50.263 7.632C50.479 7.2 50.763 6.86 51.115 6.612C51.827 6.108 52.615 5.856 53.479 5.856C53.735 5.856 54.011 5.912 54.307 6.024V3.684H53.299V2.964C53.611 2.812 53.971 2.736 54.379 2.736C54.795 2.736 55.075 2.836 55.219 3.036C55.363 3.228 55.435 3.524 55.435 3.924V11.184H56.443ZM53.479 6.804C52.767 6.804 52.191 7 51.751 7.392C51.319 7.776 51.103 8.32 51.103 9.024C51.103 9.728 51.275 10.276 51.619 10.668C51.971 11.052 52.351 11.244 52.759 11.244C53.447 11.244 53.963 10.992 54.307 10.488V6.984C53.947 6.864 53.671 6.804 53.479 6.804ZM60.405 12.12C59.501 12.12 58.765 11.864 58.197 11.352C57.637 10.832 57.357 10.076 57.357 9.084C57.357 8.092 57.645 7.308 58.221 6.732C58.797 6.148 59.469 5.856 60.237 5.856C62.061 5.856 62.973 6.936 62.973 9.096H58.521V9.156C58.521 9.724 58.721 10.204 59.121 10.596C59.521 10.988 60.065 11.184 60.753 11.184C61.049 11.184 61.329 11.152 61.593 11.088C61.857 11.016 62.049 10.944 62.169 10.872L62.337 10.776L62.685 11.4C62.661 11.416 62.625 11.444 62.577 11.484C62.537 11.516 62.445 11.572 62.301 11.652C62.157 11.732 62.001 11.804 61.833 11.868C61.409 12.036 60.933 12.12 60.405 12.12ZM61.857 8.328C61.817 7.832 61.653 7.456 61.365 7.2C61.085 6.936 60.717 6.804 60.261 6.804C59.813 6.804 59.441 6.932 59.145 7.188C58.849 7.436 58.657 7.816 58.569 8.328H61.857ZM63.5866 6.012H66.6466V6.54L65.8306 6.828L67.3906 10.812L68.8906 6.828L68.0746 6.54V6.012H71.0746V6.54L70.1146 6.852L67.9306 12H66.7306L64.5466 6.852L63.5866 6.54V6.012Z" fill="#F198FF"/>
</svg>
