<svg width="73" height="16" viewBox="0 0 73 16" fill="none" xmlns="http://www.w3.org/2000/svg">
<path d="M3.564 12.144C2.996 12.144 2.484 12.016 2.028 11.76C1.58 11.496 1.224 11.132 0.96 10.668C0.704 10.196 0.576 9.648 0.576 9.024C0.576 8.4 0.704 7.856 0.96 7.392C1.224 6.92 1.58 6.556 2.028 6.3C2.484 6.036 2.996 5.904 3.564 5.904C4.268 5.904 4.86 6.088 5.34 6.456C5.828 6.824 6.136 7.316 6.264 7.932H5.232C5.152 7.564 4.956 7.28 4.644 7.08C4.332 6.872 3.968 6.768 3.552 6.768C3.216 6.768 2.9 6.852 2.604 7.02C2.308 7.188 2.068 7.44 1.884 7.776C1.7 8.112 1.608 8.528 1.608 9.024C1.608 9.52 1.7 9.936 1.884 10.272C2.068 10.608 2.308 10.864 2.604 11.04C2.9 11.208 3.216 11.292 3.552 11.292C3.968 11.292 4.332 11.192 4.644 10.992C4.956 10.784 5.152 10.492 5.232 10.116H6.264C6.144 10.716 5.84 11.204 5.352 11.58C4.864 11.956 4.268 12.144 3.564 12.144ZM10.3838 12.144C9.82375 12.144 9.31975 12.016 8.87175 11.76C8.42375 11.504 8.06775 11.144 7.80375 10.68C7.54775 10.208 7.41975 9.656 7.41975 9.024C7.41975 8.392 7.55175 7.844 7.81575 7.38C8.07975 6.908 8.43575 6.544 8.88375 6.288C9.33975 6.032 9.84775 5.904 10.4078 5.904C10.9678 5.904 11.4718 6.032 11.9198 6.288C12.3678 6.544 12.7198 6.908 12.9758 7.38C13.2398 7.844 13.3718 8.392 13.3718 9.024C13.3718 9.656 13.2398 10.208 12.9758 10.68C12.7118 11.144 12.3518 11.504 11.8958 11.76C11.4478 12.016 10.9438 12.144 10.3838 12.144ZM10.3838 11.28C10.7278 11.28 11.0478 11.196 11.3438 11.028C11.6398 10.86 11.8798 10.608 12.0638 10.272C12.2478 9.936 12.3398 9.52 12.3398 9.024C12.3398 8.528 12.2478 8.112 12.0638 7.776C11.8878 7.44 11.6518 7.188 11.3558 7.02C11.0598 6.852 10.7438 6.768 10.4078 6.768C10.0638 6.768 9.74375 6.852 9.44775 7.02C9.15175 7.188 8.91175 7.44 8.72775 7.776C8.54375 8.112 8.45175 8.528 8.45175 9.024C8.45175 9.52 8.54375 9.936 8.72775 10.272C8.91175 10.608 9.14775 10.86 9.43575 11.028C9.73175 11.196 10.0478 11.28 10.3838 11.28ZM14.7733 12V6.048H15.6853L15.7453 7.116C15.9373 6.74 16.2133 6.444 16.5733 6.228C16.9333 6.012 17.3413 5.904 17.7973 5.904C18.5013 5.904 19.0613 6.12 19.4773 6.552C19.9013 6.976 20.1133 7.632 20.1133 8.52V12H19.1053V8.628C19.1053 7.388 18.5933 6.768 17.5693 6.768C17.0573 6.768 16.6293 6.956 16.2853 7.332C15.9493 7.7 15.7813 8.228 15.7813 8.916V12H14.7733ZM22.3005 4.728C22.1085 4.728 21.9445 4.664 21.8085 4.536C21.6725 4.4 21.6045 4.232 21.6045 4.032C21.6045 3.84 21.6725 3.68 21.8085 3.552C21.9445 3.424 22.1085 3.36 22.3005 3.36C22.4925 3.36 22.6525 3.424 22.7805 3.552C22.9165 3.68 22.9845 3.84 22.9845 4.032C22.9845 4.232 22.9165 4.4 22.7805 4.536C22.6525 4.664 22.4925 4.728 22.3005 4.728ZM20.4765 14.64V13.776H20.9445C21.2405 13.776 21.4525 13.712 21.5805 13.584C21.7165 13.464 21.7845 13.256 21.7845 12.96V6.048H22.7925V12.984C22.7925 13.56 22.6485 13.98 22.3605 14.244C22.0725 14.508 21.6525 14.64 21.1005 14.64H20.4765ZM26.7188 12.144C26.0148 12.144 25.4548 11.932 25.0388 11.508C24.6228 11.076 24.4148 10.416 24.4148 9.528V6.048H25.4228V9.42C25.4228 10.66 25.9308 11.28 26.9468 11.28C27.4668 11.28 27.8948 11.096 28.2308 10.728C28.5748 10.352 28.7468 9.82 28.7468 9.132V6.048H29.7548V12H28.8428L28.7708 10.932C28.5868 11.308 28.3108 11.604 27.9428 11.82C27.5828 12.036 27.1748 12.144 26.7188 12.144ZM31.4139 12V6.048H32.3259L32.4099 7.188C32.5939 6.796 32.8739 6.484 33.2499 6.252C33.6259 6.02 34.0899 5.904 34.6419 5.904V6.96H34.3659C34.0139 6.96 33.6899 7.024 33.3939 7.152C33.0979 7.272 32.8619 7.48 32.6859 7.776C32.5099 8.072 32.4219 8.48 32.4219 9V12H31.4139ZM36.4213 14.64L37.8973 11.424H37.5493L35.1853 6.048H36.2773L38.2453 10.68L40.3333 6.048H41.3773L37.4773 14.64H36.4213ZM41.9338 12.06C41.7338 12.06 41.5658 11.996 41.4298 11.868C41.3018 11.732 41.2378 11.568 41.2378 11.376C41.2378 11.184 41.3018 11.024 41.4298 10.896C41.5658 10.76 41.7338 10.692 41.9338 10.692C42.1258 10.692 42.2858 10.76 42.4138 10.896C42.5498 11.024 42.6178 11.184 42.6178 11.376C42.6178 11.568 42.5498 11.732 42.4138 11.868C42.2858 11.996 42.1258 12.06 41.9338 12.06ZM46.6296 12.144C46.0376 12.144 45.5176 12.008 45.0696 11.736C44.6296 11.464 44.2856 11.092 44.0376 10.62C43.7976 10.148 43.6776 9.612 43.6776 9.012C43.6776 8.412 43.8016 7.88 44.0496 7.416C44.2976 6.944 44.6416 6.576 45.0816 6.312C45.5216 6.04 46.0416 5.904 46.6416 5.904C47.1296 5.904 47.5616 6.004 47.9376 6.204C48.3136 6.404 48.6056 6.684 48.8136 7.044V3.36H49.8216V12H48.9096L48.8136 11.016C48.6216 11.304 48.3456 11.564 47.9856 11.796C47.6256 12.028 47.1736 12.144 46.6296 12.144ZM46.7376 11.268C47.1376 11.268 47.4896 11.176 47.7936 10.992C48.1056 10.8 48.3456 10.536 48.5136 10.2C48.6896 9.864 48.7776 9.472 48.7776 9.024C48.7776 8.576 48.6896 8.184 48.5136 7.848C48.3456 7.512 48.1056 7.252 47.7936 7.068C47.4896 6.876 47.1376 6.78 46.7376 6.78C46.3456 6.78 45.9936 6.876 45.6816 7.068C45.3776 7.252 45.1376 7.512 44.9616 7.848C44.7936 8.184 44.7096 8.576 44.7096 9.024C44.7096 9.472 44.7936 9.864 44.9616 10.2C45.1376 10.536 45.3776 10.8 45.6816 10.992C45.9936 11.176 46.3456 11.268 46.7376 11.268ZM54.1407 12.144C53.5727 12.144 53.0687 12.016 52.6287 11.76C52.1887 11.496 51.8407 11.132 51.5847 10.668C51.3367 10.204 51.2127 9.656 51.2127 9.024C51.2127 8.4 51.3367 7.856 51.5847 7.392C51.8327 6.92 52.1767 6.556 52.6167 6.3C53.0647 6.036 53.5807 5.904 54.1647 5.904C54.7407 5.904 55.2367 6.036 55.6527 6.3C56.0767 6.556 56.4007 6.896 56.6247 7.32C56.8487 7.744 56.9607 8.2 56.9607 8.688C56.9607 8.776 56.9567 8.864 56.9487 8.952C56.9487 9.04 56.9487 9.14 56.9487 9.252H52.2087C52.2327 9.708 52.3367 10.088 52.5207 10.392C52.7127 10.688 52.9487 10.912 53.2287 11.064C53.5167 11.216 53.8207 11.292 54.1407 11.292C54.5567 11.292 54.9047 11.196 55.1847 11.004C55.4647 10.812 55.6687 10.552 55.7967 10.224H56.7927C56.6327 10.776 56.3247 11.236 55.8687 11.604C55.4207 11.964 54.8447 12.144 54.1407 12.144ZM54.1407 6.756C53.6607 6.756 53.2327 6.904 52.8567 7.2C52.4887 7.488 52.2767 7.912 52.2207 8.472H55.9647C55.9407 7.936 55.7567 7.516 55.4127 7.212C55.0687 6.908 54.6447 6.756 54.1407 6.756ZM59.7784 12L57.5224 6.048H58.5784L60.3664 11.028L62.1664 6.048H63.1984L60.9424 12H59.7784Z" fill="black"/>
<path d="M5.564 12.144C4.996 12.144 4.484 12.016 4.028 11.76C3.58 11.496 3.224 11.132 2.96 10.668C2.704 10.196 2.576 9.648 2.576 9.024C2.576 8.4 2.704 7.856 2.96 7.392C3.224 6.92 3.58 6.556 4.028 6.3C4.484 6.036 4.996 5.904 5.564 5.904C6.268 5.904 6.86 6.088 7.34 6.456C7.828 6.824 8.136 7.316 8.264 7.932H7.232C7.152 7.564 6.956 7.28 6.644 7.08C6.332 6.872 5.968 6.768 5.552 6.768C5.216 6.768 4.9 6.852 4.604 7.02C4.308 7.188 4.068 7.44 3.884 7.776C3.7 8.112 3.608 8.528 3.608 9.024C3.608 9.52 3.7 9.936 3.884 10.272C4.068 10.608 4.308 10.864 4.604 11.04C4.9 11.208 5.216 11.292 5.552 11.292C5.968 11.292 6.332 11.192 6.644 10.992C6.956 10.784 7.152 10.492 7.232 10.116H8.264C8.144 10.716 7.84 11.204 7.352 11.58C6.864 11.956 6.268 12.144 5.564 12.144ZM12.3838 12.144C11.8238 12.144 11.3198 12.016 10.8718 11.76C10.4238 11.504 10.0678 11.144 9.80375 10.68C9.54775 10.208 9.41975 9.656 9.41975 9.024C9.41975 8.392 9.55175 7.844 9.81575 7.38C10.0798 6.908 10.4358 6.544 10.8838 6.288C11.3398 6.032 11.8478 5.904 12.4078 5.904C12.9678 5.904 13.4718 6.032 13.9198 6.288C14.3678 6.544 14.7198 6.908 14.9758 7.38C15.2398 7.844 15.3718 8.392 15.3718 9.024C15.3718 9.656 15.2398 10.208 14.9758 10.68C14.7118 11.144 14.3518 11.504 13.8958 11.76C13.4478 12.016 12.9438 12.144 12.3838 12.144ZM12.3838 11.28C12.7278 11.28 13.0478 11.196 13.3438 11.028C13.6398 10.86 13.8798 10.608 14.0638 10.272C14.2478 9.936 14.3398 9.52 14.3398 9.024C14.3398 8.528 14.2478 8.112 14.0638 7.776C13.8878 7.44 13.6518 7.188 13.3558 7.02C13.0598 6.852 12.7438 6.768 12.4078 6.768C12.0638 6.768 11.7438 6.852 11.4478 7.02C11.1518 7.188 10.9118 7.44 10.7278 7.776C10.5438 8.112 10.4518 8.528 10.4518 9.024C10.4518 9.52 10.5438 9.936 10.7278 10.272C10.9118 10.608 11.1478 10.86 11.4358 11.028C11.7318 11.196 12.0478 11.28 12.3838 11.28ZM16.7733 12V6.048H17.6853L17.7453 7.116C17.9373 6.74 18.2133 6.444 18.5733 6.228C18.9333 6.012 19.3413 5.904 19.7973 5.904C20.5013 5.904 21.0613 6.12 21.4773 6.552C21.9013 6.976 22.1133 7.632 22.1133 8.52V12H21.1053V8.628C21.1053 7.388 20.5933 6.768 19.5693 6.768C19.0573 6.768 18.6293 6.956 18.2853 7.332C17.9493 7.7 17.7813 8.228 17.7813 8.916V12H16.7733ZM24.3005 4.728C24.1085 4.728 23.9445 4.664 23.8085 4.536C23.6725 4.4 23.6045 4.232 23.6045 4.032C23.6045 3.84 23.6725 3.68 23.8085 3.552C23.9445 3.424 24.1085 3.36 24.3005 3.36C24.4925 3.36 24.6525 3.424 24.7805 3.552C24.9165 3.68 24.9845 3.84 24.9845 4.032C24.9845 4.232 24.9165 4.4 24.7805 4.536C24.6525 4.664 24.4925 4.728 24.3005 4.728ZM22.4765 14.64V13.776H22.9445C23.2405 13.776 23.4525 13.712 23.5805 13.584C23.7165 13.464 23.7845 13.256 23.7845 12.96V6.048H24.7925V12.984C24.7925 13.56 24.6485 13.98 24.3605 14.244C24.0725 14.508 23.6525 14.64 23.1005 14.64H22.4765ZM28.7188 12.144C28.0148 12.144 27.4548 11.932 27.0388 11.508C26.6228 11.076 26.4148 10.416 26.4148 9.528V6.048H27.4228V9.42C27.4228 10.66 27.9308 11.28 28.9468 11.28C29.4668 11.28 29.8948 11.096 30.2308 10.728C30.5748 10.352 30.7468 9.82 30.7468 9.132V6.048H31.7548V12H30.8428L30.7708 10.932C30.5868 11.308 30.3108 11.604 29.9428 11.82C29.5828 12.036 29.1748 12.144 28.7188 12.144ZM33.4139 12V6.048H34.3259L34.4099 7.188C34.5939 6.796 34.8739 6.484 35.2499 6.252C35.6259 6.02 36.0899 5.904 36.6419 5.904V6.96H36.3659C36.0139 6.96 35.6899 7.024 35.3939 7.152C35.0979 7.272 34.8619 7.48 34.6859 7.776C34.5099 8.072 34.4219 8.48 34.4219 9V12H33.4139ZM38.4213 14.64L39.8973 11.424H39.5493L37.1853 6.048H38.2773L40.2453 10.68L42.3333 6.048H43.3773L39.4773 14.64H38.4213ZM43.9338 12.06C43.7338 12.06 43.5658 11.996 43.4298 11.868C43.3018 11.732 43.2378 11.568 43.2378 11.376C43.2378 11.184 43.3018 11.024 43.4298 10.896C43.5658 10.76 43.7338 10.692 43.9338 10.692C44.1258 10.692 44.2858 10.76 44.4138 10.896C44.5498 11.024 44.6178 11.184 44.6178 11.376C44.6178 11.568 44.5498 11.732 44.4138 11.868C44.2858 11.996 44.1258 12.06 43.9338 12.06ZM48.6296 12.144C48.0376 12.144 47.5176 12.008 47.0696 11.736C46.6296 11.464 46.2856 11.092 46.0376 10.62C45.7976 10.148 45.6776 9.612 45.6776 9.012C45.6776 8.412 45.8016 7.88 46.0496 7.416C46.2976 6.944 46.6416 6.576 47.0816 6.312C47.5216 6.04 48.0416 5.904 48.6416 5.904C49.1296 5.904 49.5616 6.004 49.9376 6.204C50.3136 6.404 50.6056 6.684 50.8136 7.044V3.36H51.8216V12H50.9096L50.8136 11.016C50.6216 11.304 50.3456 11.564 49.9856 11.796C49.6256 12.028 49.1736 12.144 48.6296 12.144ZM48.7376 11.268C49.1376 11.268 49.4896 11.176 49.7936 10.992C50.1056 10.8 50.3456 10.536 50.5136 10.2C50.6896 9.864 50.7776 9.472 50.7776 9.024C50.7776 8.576 50.6896 8.184 50.5136 7.848C50.3456 7.512 50.1056 7.252 49.7936 7.068C49.4896 6.876 49.1376 6.78 48.7376 6.78C48.3456 6.78 47.9936 6.876 47.6816 7.068C47.3776 7.252 47.1376 7.512 46.9616 7.848C46.7936 8.184 46.7096 8.576 46.7096 9.024C46.7096 9.472 46.7936 9.864 46.9616 10.2C47.1376 10.536 47.3776 10.8 47.6816 10.992C47.9936 11.176 48.3456 11.268 48.7376 11.268ZM56.1407 12.144C55.5727 12.144 55.0687 12.016 54.6287 11.76C54.1887 11.496 53.8407 11.132 53.5847 10.668C53.3367 10.204 53.2127 9.656 53.2127 9.024C53.2127 8.4 53.3367 7.856 53.5847 7.392C53.8327 6.92 54.1767 6.556 54.6167 6.3C55.0647 6.036 55.5807 5.904 56.1647 5.904C56.7407 5.904 57.2367 6.036 57.6527 6.3C58.0767 6.556 58.4007 6.896 58.6247 7.32C58.8487 7.744 58.9607 8.2 58.9607 8.688C58.9607 8.776 58.9567 8.864 58.9487 8.952C58.9487 9.04 58.9487 9.14 58.9487 9.252H54.2087C54.2327 9.708 54.3367 10.088 54.5207 10.392C54.7127 10.688 54.9487 10.912 55.2287 11.064C55.5167 11.216 55.8207 11.292 56.1407 11.292C56.5567 11.292 56.9047 11.196 57.1847 11.004C57.4647 10.812 57.6687 10.552 57.7967 10.224H58.7927C58.6327 10.776 58.3247 11.236 57.8687 11.604C57.4207 11.964 56.8447 12.144 56.1407 12.144ZM56.1407 6.756C55.6607 6.756 55.2327 6.904 54.8567 7.2C54.4887 7.488 54.2767 7.912 54.2207 8.472H57.9647C57.9407 7.936 57.7567 7.516 57.4127 7.212C57.0687 6.908 56.6447 6.756 56.1407 6.756ZM61.7784 12L59.5224 6.048H60.5784L62.3664 11.028L64.1664 6.048H65.1984L62.9424 12H61.7784Z" fill="#27F2B7"/>
<path d="M4.564 12.144C3.996 12.144 3.484 12.016 3.028 11.76C2.58 11.496 2.224 11.132 1.96 10.668C1.704 10.196 1.576 9.648 1.576 9.024C1.576 8.4 1.704 7.856 1.96 7.392C2.224 6.92 2.58 6.556 3.028 6.3C3.484 6.036 3.996 5.904 4.564 5.904C5.268 5.904 5.86 6.088 6.34 6.456C6.828 6.824 7.136 7.316 7.264 7.932H6.232C6.152 7.564 5.956 7.28 5.644 7.08C5.332 6.872 4.968 6.768 4.552 6.768C4.216 6.768 3.9 6.852 3.604 7.02C3.308 7.188 3.068 7.44 2.884 7.776C2.7 8.112 2.608 8.528 2.608 9.024C2.608 9.52 2.7 9.936 2.884 10.272C3.068 10.608 3.308 10.864 3.604 11.04C3.9 11.208 4.216 11.292 4.552 11.292C4.968 11.292 5.332 11.192 5.644 10.992C5.956 10.784 6.152 10.492 6.232 10.116H7.264C7.144 10.716 6.84 11.204 6.352 11.58C5.864 11.956 5.268 12.144 4.564 12.144ZM11.3838 12.144C10.8238 12.144 10.3198 12.016 9.87175 11.76C9.42375 11.504 9.06775 11.144 8.80375 10.68C8.54775 10.208 8.41975 9.656 8.41975 9.024C8.41975 8.392 8.55175 7.844 8.81575 7.38C9.07975 6.908 9.43575 6.544 9.88375 6.288C10.3398 6.032 10.8478 5.904 11.4078 5.904C11.9678 5.904 12.4718 6.032 12.9198 6.288C13.3678 6.544 13.7198 6.908 13.9758 7.38C14.2398 7.844 14.3718 8.392 14.3718 9.024C14.3718 9.656 14.2398 10.208 13.9758 10.68C13.7118 11.144 13.3518 11.504 12.8958 11.76C12.4478 12.016 11.9438 12.144 11.3838 12.144ZM11.3838 11.28C11.7278 11.28 12.0478 11.196 12.3438 11.028C12.6398 10.86 12.8798 10.608 13.0638 10.272C13.2478 9.936 13.3398 9.52 13.3398 9.024C13.3398 8.528 13.2478 8.112 13.0638 7.776C12.8878 7.44 12.6518 7.188 12.3558 7.02C12.0598 6.852 11.7438 6.768 11.4078 6.768C11.0638 6.768 10.7438 6.852 10.4478 7.02C10.1518 7.188 9.91175 7.44 9.72775 7.776C9.54375 8.112 9.45175 8.528 9.45175 9.024C9.45175 9.52 9.54375 9.936 9.72775 10.272C9.91175 10.608 10.1478 10.86 10.4358 11.028C10.7318 11.196 11.0478 11.28 11.3838 11.28ZM15.7733 12V6.048H16.6853L16.7453 7.116C16.9373 6.74 17.2133 6.444 17.5733 6.228C17.9333 6.012 18.3413 5.904 18.7973 5.904C19.5013 5.904 20.0613 6.12 20.4773 6.552C20.9013 6.976 21.1133 7.632 21.1133 8.52V12H20.1053V8.628C20.1053 7.388 19.5933 6.768 18.5693 6.768C18.0573 6.768 17.6293 6.956 17.2853 7.332C16.9493 7.7 16.7813 8.228 16.7813 8.916V12H15.7733ZM23.3005 4.728C23.1085 4.728 22.9445 4.664 22.8085 4.536C22.6725 4.4 22.6045 4.232 22.6045 4.032C22.6045 3.84 22.6725 3.68 22.8085 3.552C22.9445 3.424 23.1085 3.36 23.3005 3.36C23.4925 3.36 23.6525 3.424 23.7805 3.552C23.9165 3.68 23.9845 3.84 23.9845 4.032C23.9845 4.232 23.9165 4.4 23.7805 4.536C23.6525 4.664 23.4925 4.728 23.3005 4.728ZM21.4765 14.64V13.776H21.9445C22.2405 13.776 22.4525 13.712 22.5805 13.584C22.7165 13.464 22.7845 13.256 22.7845 12.96V6.048H23.7925V12.984C23.7925 13.56 23.6485 13.98 23.3605 14.244C23.0725 14.508 22.6525 14.64 22.1005 14.64H21.4765ZM27.7188 12.144C27.0148 12.144 26.4548 11.932 26.0388 11.508C25.6228 11.076 25.4148 10.416 25.4148 9.528V6.048H26.4228V9.42C26.4228 10.66 26.9308 11.28 27.9468 11.28C28.4668 11.28 28.8948 11.096 29.2308 10.728C29.5748 10.352 29.7468 9.82 29.7468 9.132V6.048H30.7548V12H29.8428L29.7708 10.932C29.5868 11.308 29.3108 11.604 28.9428 11.82C28.5828 12.036 28.1748 12.144 27.7188 12.144ZM32.4139 12V6.048H33.3259L33.4099 7.188C33.5939 6.796 33.8739 6.484 34.2499 6.252C34.6259 6.02 35.0899 5.904 35.6419 5.904V6.96H35.3659C35.0139 6.96 34.6899 7.024 34.3939 7.152C34.0979 7.272 33.8619 7.48 33.6859 7.776C33.5099 8.072 33.4219 8.48 33.4219 9V12H32.4139ZM37.4213 14.64L38.8973 11.424H38.5493L36.1853 6.048H37.2773L39.2453 10.68L41.3333 6.048H42.3773L38.4773 14.64H37.4213ZM42.9338 12.06C42.7338 12.06 42.5658 11.996 42.4298 11.868C42.3018 11.732 42.2378 11.568 42.2378 11.376C42.2378 11.184 42.3018 11.024 42.4298 10.896C42.5658 10.76 42.7338 10.692 42.9338 10.692C43.1258 10.692 43.2858 10.76 43.4138 10.896C43.5498 11.024 43.6178 11.184 43.6178 11.376C43.6178 11.568 43.5498 11.732 43.4138 11.868C43.2858 11.996 43.1258 12.06 42.9338 12.06ZM47.6296 12.144C47.0376 12.144 46.5176 12.008 46.0696 11.736C45.6296 11.464 45.2856 11.092 45.0376 10.62C44.7976 10.148 44.6776 9.612 44.6776 9.012C44.6776 8.412 44.8016 7.88 45.0496 7.416C45.2976 6.944 45.6416 6.576 46.0816 6.312C46.5216 6.04 47.0416 5.904 47.6416 5.904C48.1296 5.904 48.5616 6.004 48.9376 6.204C49.3136 6.404 49.6056 6.684 49.8136 7.044V3.36H50.8216V12H49.9096L49.8136 11.016C49.6216 11.304 49.3456 11.564 48.9856 11.796C48.6256 12.028 48.1736 12.144 47.6296 12.144ZM47.7376 11.268C48.1376 11.268 48.4896 11.176 48.7936 10.992C49.1056 10.8 49.3456 10.536 49.5136 10.2C49.6896 9.864 49.7776 9.472 49.7776 9.024C49.7776 8.576 49.6896 8.184 49.5136 7.848C49.3456 7.512 49.1056 7.252 48.7936 7.068C48.4896 6.876 48.1376 6.78 47.7376 6.78C47.3456 6.78 46.9936 6.876 46.6816 7.068C46.3776 7.252 46.1376 7.512 45.9616 7.848C45.7936 8.184 45.7096 8.576 45.7096 9.024C45.7096 9.472 45.7936 9.864 45.9616 10.2C46.1376 10.536 46.3776 10.8 46.6816 10.992C46.9936 11.176 47.3456 11.268 47.7376 11.268ZM55.1407 12.144C54.5727 12.144 54.0687 12.016 53.6287 11.76C53.1887 11.496 52.8407 11.132 52.5847 10.668C52.3367 10.204 52.2127 9.656 52.2127 9.024C52.2127 8.4 52.3367 7.856 52.5847 7.392C52.8327 6.92 53.1767 6.556 53.6167 6.3C54.0647 6.036 54.5807 5.904 55.1647 5.904C55.7407 5.904 56.2367 6.036 56.6527 6.3C57.0767 6.556 57.4007 6.896 57.6247 7.32C57.8487 7.744 57.9607 8.2 57.9607 8.688C57.9607 8.776 57.9567 8.864 57.9487 8.952C57.9487 9.04 57.9487 9.14 57.9487 9.252H53.2087C53.2327 9.708 53.3367 10.088 53.5207 10.392C53.7127 10.688 53.9487 10.912 54.2287 11.064C54.5167 11.216 54.8207 11.292 55.1407 11.292C55.5567 11.292 55.9047 11.196 56.1847 11.004C56.4647 10.812 56.6687 10.552 56.7967 10.224H57.7927C57.6327 10.776 57.3247 11.236 56.8687 11.604C56.4207 11.964 55.8447 12.144 55.1407 12.144ZM55.1407 6.756C54.6607 6.756 54.2327 6.904 53.8567 7.2C53.4887 7.488 53.2767 7.912 53.2207 8.472H56.9647C56.9407 7.936 56.7567 7.516 56.4127 7.212C56.0687 6.908 55.6447 6.756 55.1407 6.756ZM60.7784 12L58.5224 6.048H59.5784L61.3664 11.028L63.1664 6.048H64.1984L61.9424 12H60.7784Z" fill="#F198FF"/>
</svg>
