<svg width="9" height="17" viewBox="0 0 9 17" fill="none" xmlns="http://www.w3.org/2000/svg">
<path d="M3.564 12.144C2.996 12.144 2.484 12.016 2.028 11.76C1.58 11.496 1.224 11.132 0.96 10.668C0.704 10.196 0.576 9.648 0.576 9.024C0.576 8.4 0.704 7.856 0.96 7.392C1.224 6.92 1.58 6.556 2.028 6.3C2.484 6.036 2.996 5.904 3.564 5.904C4.268 5.904 4.86 6.088 5.34 6.456C5.828 6.824 6.136 7.316 6.264 7.932H5.232C5.152 7.564 4.956 7.28 4.644 7.08C4.332 6.872 3.968 6.768 3.552 6.768C3.216 6.768 2.9 6.852 2.604 7.02C2.308 7.188 2.068 7.44 1.884 7.776C1.7 8.112 1.608 8.528 1.608 9.024C1.608 9.52 1.7 9.936 1.884 10.272C2.068 10.608 2.308 10.864 2.604 11.04C2.9 11.208 3.216 11.292 3.552 11.292C3.968 11.292 4.332 11.192 4.644 10.992C4.956 10.784 5.152 10.492 5.232 10.116H6.264C6.144 10.716 5.84 11.204 5.352 11.58C4.864 11.956 4.268 12.144 3.564 12.144Z" fill="black"/>
<path d="M5.564 12.144C4.996 12.144 4.484 12.016 4.028 11.76C3.58 11.496 3.224 11.132 2.96 10.668C2.704 10.196 2.576 9.648 2.576 9.024C2.576 8.4 2.704 7.856 2.96 7.392C3.224 6.92 3.58 6.556 4.028 6.3C4.484 6.036 4.996 5.904 5.564 5.904C6.268 5.904 6.86 6.088 7.34 6.456C7.828 6.824 8.136 7.316 8.264 7.932H7.232C7.152 7.564 6.956 7.28 6.644 7.08C6.332 6.872 5.968 6.768 5.552 6.768C5.216 6.768 4.9 6.852 4.604 7.02C4.308 7.188 4.068 7.44 3.884 7.776C3.7 8.112 3.608 8.528 3.608 9.024C3.608 9.52 3.7 9.936 3.884 10.272C4.068 10.608 4.308 10.864 4.604 11.04C4.9 11.208 5.216 11.292 5.552 11.292C5.968 11.292 6.332 11.192 6.644 10.992C6.956 10.784 7.152 10.492 7.232 10.116H8.264C8.144 10.716 7.84 11.204 7.352 11.58C6.864 11.956 6.268 12.144 5.564 12.144Z" fill="#27F2B7"/>
<path d="M4.564 12.144C3.996 12.144 3.484 12.016 3.028 11.76C2.58 11.496 2.224 11.132 1.96 10.668C1.704 10.196 1.576 9.648 1.576 9.024C1.576 8.4 1.704 7.856 1.96 7.392C2.224 6.92 2.58 6.556 3.028 6.3C3.484 6.036 3.996 5.904 4.564 5.904C5.268 5.904 5.86 6.088 6.34 6.456C6.828 6.824 7.136 7.316 7.264 7.932H6.232C6.152 7.564 5.956 7.28 5.644 7.08C5.332 6.872 4.968 6.768 4.552 6.768C4.216 6.768 3.9 6.852 3.604 7.02C3.308 7.188 3.068 7.44 2.884 7.776C2.7 8.112 2.608 8.528 2.608 9.024C2.608 9.52 2.7 9.936 2.884 10.272C3.068 10.608 3.308 10.864 3.604 11.04C3.9 11.208 4.216 11.292 4.552 11.292C4.968 11.292 5.332 11.192 5.644 10.992C5.956 10.784 6.152 10.492 6.232 10.116H7.264C7.144 10.716 6.84 11.204 6.352 11.58C5.864 11.956 5.268 12.144 4.564 12.144Z" fill="#F198FF"/>
</svg>
